<svg version="1.1" id="Layer_1" xmlns="http://www.w3.org/2000/svg" xmlns:xlink="http://www.w3.org/1999/xlink" x="0px" y="0px"
	 width="100%" viewBox="0 0 942 1092" enable-background="new 0 0 942 1092" xml:space="preserve">
<path fill="#FEFEFE" opacity="1.000000" stroke="none" 
	d="
M521.000000,1093.000000 
	C347.333344,1093.000000 174.166672,1093.000000 1.000000,1093.000000 
	C1.000000,729.000000 1.000000,365.000000 1.000000,1.000000 
	C315.000000,1.000000 629.000000,1.000000 943.000000,1.000000 
	C943.000000,365.000000 943.000000,729.000000 943.000000,1093.000000 
	C802.500000,1093.000000 662.000000,1093.000000 521.000000,1093.000000 
M644.770874,53.750275 
	C604.732056,44.660496 564.226135,38.652927 523.255188,36.133530 
	C474.761963,33.151573 426.348206,34.159336 378.036774,39.779339 
	C322.426178,46.248444 268.093872,58.431431 215.077362,76.262001 
	C168.905609,91.790535 124.660164,111.830383 81.828102,135.030838 
	C78.392097,136.891983 77.872635,139.137131 77.875656,142.574768 
	C77.989166,271.727448 77.893486,400.880463 78.154137,530.032776 
	C78.213959,559.673584 77.770775,589.467896 80.489067,618.921143 
	C87.584129,695.797668 119.239281,762.645569 167.639572,822.062134 
	C206.468445,869.728821 252.627701,909.364380 302.542725,944.826233 
	C354.802673,981.954041 410.080353,1013.976379 467.904144,1041.612793 
	C469.101959,1042.185303 471.131958,1042.015381 472.357330,1041.383911 
	C497.069519,1028.648315 522.042969,1016.372986 546.321350,1002.851379 
	C609.991943,967.390686 670.056030,926.781982 722.781860,876.045288 
	C761.558899,838.731384 795.225403,797.468079 820.631775,749.751587 
	C847.515625,699.260254 862.406677,645.340820 862.726562,588.330566 
	C863.563538,439.184631 863.083130,290.031372 863.234070,140.881119 
	C863.237244,137.782089 861.876038,136.462555 859.552429,135.155823 
	C792.306946,97.338356 720.940674,70.386040 644.770874,53.750275 
z"/>
<path fill="#010101" opacity="1.000000" stroke="none" 
	d="
M645.181580,53.832729 
	C720.940674,70.386040 792.306946,97.338356 859.552429,135.155823 
	C861.876038,136.462555 863.237244,137.782089 863.234070,140.881119 
	C863.083130,290.031372 863.563538,439.184631 862.726562,588.330566 
	C862.406677,645.340820 847.515625,699.260254 820.631775,749.751587 
	C795.225403,797.468079 761.558899,838.731384 722.781860,876.045288 
	C670.056030,926.781982 609.991943,967.390686 546.321350,1002.851379 
	C522.042969,1016.372986 497.069519,1028.648315 472.357330,1041.383911 
	C471.131958,1042.015381 469.101959,1042.185303 467.904144,1041.612793 
	C410.080353,1013.976379 354.802673,981.954041 302.542725,944.826233 
	C252.627701,909.364380 206.468445,869.728821 167.639572,822.062134 
	C119.239281,762.645569 87.584129,695.797668 80.489067,618.921143 
	C77.770775,589.467896 78.213959,559.673584 78.154137,530.032776 
	C77.893486,400.880463 77.989166,271.727448 77.875656,142.574768 
	C77.872635,139.137131 78.392097,136.891983 81.828102,135.030838 
	C124.660164,111.830383 168.905609,91.790535 215.077362,76.262001 
	C268.093872,58.431431 322.426178,46.248444 378.036774,39.779339 
	C426.348206,34.159336 474.761963,33.151573 523.255188,36.133530 
	C564.226135,38.652927 604.732056,44.660496 645.181580,53.832729 
M420.425934,237.905319 
	C410.296539,238.714935 400.141785,239.306641 390.055023,240.482117 
	C387.419891,240.789200 384.440002,242.371933 382.571533,244.294876 
	C374.214172,252.895691 366.268616,261.894501 358.052490,270.635040 
	C323.818176,307.054688 289.512817,343.407654 255.355988,379.899689 
	C253.610092,381.764954 252.011612,384.692291 252.006210,387.128815 
	C251.820526,471.112976 251.857590,555.097534 251.743042,639.081970 
	C251.738327,642.541870 252.997238,644.537415 255.698349,646.405884 
	C265.013824,652.849854 274.222809,659.449524 283.416962,666.066895 
	C358.728699,720.271851 434.036591,774.482178 509.289093,828.769287 
	C511.557404,830.405579 513.193542,830.823303 515.341003,828.907898 
	C516.444946,827.923340 517.849426,827.278931 519.104553,826.460144 
	C579.902832,786.801514 630.110962,737.196594 663.226501,671.818298 
	C679.605896,639.481201 689.477112,605.481873 689.300842,568.701843 
	C688.879883,480.886383 689.090820,393.067902 689.048767,305.250610 
	C689.042419,291.930786 689.047913,278.610931 689.047913,265.403168 
	C630.180725,246.246414 527.039124,229.577942 420.425934,237.905319 
z"/>
<path fill="#FEFEFE" opacity="1.000000" stroke="none" 
	d="
M420.891602,237.877365 
	C527.039124,229.577942 630.180725,246.246414 689.047913,265.403168 
	C689.047913,278.610931 689.042419,291.930786 689.048767,305.250610 
	C689.090820,393.067902 688.879883,480.886383 689.300842,568.701843 
	C689.477112,605.481873 679.605896,639.481201 663.226501,671.818298 
	C630.110962,737.196594 579.902832,786.801514 519.104553,826.460144 
	C517.849426,827.278931 516.444946,827.923340 515.341003,828.907898 
	C513.193542,830.823303 511.557404,830.405579 509.289093,828.769287 
	C434.036591,774.482178 358.728699,720.271851 283.416962,666.066895 
	C274.222809,659.449524 265.013824,652.849854 255.698349,646.405884 
	C252.997238,644.537415 251.738327,642.541870 251.743042,639.081970 
	C251.857590,555.097534 251.820526,471.112976 252.006210,387.128815 
	C252.011612,384.692291 253.610092,381.764954 255.355988,379.899689 
	C289.512817,343.407654 323.818176,307.054688 358.052490,270.635040 
	C366.268616,261.894501 374.214172,252.895691 382.571533,244.294876 
	C384.440002,242.371933 387.419891,240.789200 390.055023,240.482117 
	C400.141785,239.306641 410.296539,238.714935 420.891602,237.877365 
M391.664154,365.791962 
	C391.778900,364.298096 391.992676,362.804321 391.993774,361.310394 
	C392.016205,331.152618 392.015198,300.994873 392.009888,270.837097 
	C392.009796,270.243866 391.901947,269.650665 391.762573,268.215027 
	C353.598480,308.434753 316.030426,348.026337 278.265045,387.825867 
	C279.151276,388.083405 279.603607,388.329620 280.056061,388.329895 
	C308.546692,388.347321 337.040314,388.587128 365.526642,388.236267 
	C378.729889,388.073669 388.049011,379.729980 391.664154,365.791962 
z"/>
<path fill="#030303" opacity="1.000000" stroke="none" 
	d="
M391.547485,366.206604 
	C388.049011,379.729980 378.729889,388.073669 365.526642,388.236267 
	C337.040314,388.587128 308.546692,388.347321 280.056061,388.329895 
	C279.603607,388.329620 279.151276,388.083405 278.265045,387.825867 
	C316.030426,348.026337 353.598480,308.434753 391.762573,268.215027 
	C391.901947,269.650665 392.009796,270.243866 392.009888,270.837097 
	C392.015198,300.994873 392.016205,331.152618 391.993774,361.310394 
	C391.992676,362.804321 391.778900,364.298096 391.547485,366.206604 
z"/>
</svg>